<?xml version="1.0" encoding="UTF-8" standalone="no"?>
<!-- Generated by IcoMoon.io -->

<svg
   xmlns:dc="http://purl.org/dc/elements/1.1/"
   xmlns:cc="http://creativecommons.org/ns#"
   xmlns:rdf="http://www.w3.org/1999/02/22-rdf-syntax-ns#"
   xmlns:svg="http://www.w3.org/2000/svg"
   xmlns="http://www.w3.org/2000/svg"
   xmlns:sodipodi="http://sodipodi.sourceforge.net/DTD/sodipodi-0.dtd"
   xmlns:inkscape="http://www.inkscape.org/namespaces/inkscape"
   version="1.1"
   width="32"
   height="32"
   viewBox="0 0 32 32"
   id="svg2"
   inkscape:version="0.48.3.1 r9886"
   sodipodi:docname="calendar.svg">
  <metadata
     id="metadata12">
    <rdf:RDF>
      <cc:Work
         rdf:about="">
        <dc:format>image/svg+xml</dc:format>
        <dc:type
           rdf:resource="http://purl.org/dc/dcmitype/StillImage" />
      </cc:Work>
    </rdf:RDF>
  </metadata>
  <defs
     id="defs10" />
  <sodipodi:namedview
     pagecolor="#ffffff"
     bordercolor="#666666"
     borderopacity="1"
     objecttolerance="10"
     gridtolerance="10"
     guidetolerance="10"
     inkscape:pageopacity="0"
     inkscape:pageshadow="2"
     inkscape:window-width="640"
     inkscape:window-height="480"
     id="namedview8"
     showgrid="false"
     inkscape:zoom="7.375"
     inkscape:cx="16"
     inkscape:cy="16"
     inkscape:window-x="72"
     inkscape:window-y="24"
     inkscape:window-maximized="0"
     inkscape:current-layer="svg2" />
  <g
     id="g4" />
  <path
     d="M28 4h-3v1c0 1.103-0.897 2-2 2s-2-0.897-2-2v-1h-10v1c0 1.103-0.897 2-2 2s-2-0.897-2-2v-1h-3c-1.1 0-2 0.9-2 2v22c0 1.1 0.9 2 2 2h24c1.1 0 2-0.9 2-2v-22c0-1.1-0.9-2-2-2zM28 27.996c-0.001 0.001-0.002 0.003-0.004 0.004h-23.993c-0.001-0.001-0.003-0.002-0.004-0.004v-17.996h24v17.996zM9 6c0.552 0 1-0.448 1-1v-4c0-0.552-0.448-1-1-1s-1 0.448-1 1v4c0 0.552 0.448 1 1 1zM23 6c0.552 0 1-0.448 1-1v-4c0-0.552-0.448-1-1-1s-1 0.448-1 1v4c0 0.552 0.448 1 1 1zM18 12h-10v2h8v4h-8v2h8v4h-8v2h10zM22 26h2v-14h-4v2h2zM27.25 30.75h-22.5c-1.1 0-2-0.65-2-1.75v1c0 1.1 0.9 2 2 2h22.5c1.1 0 2-0.9 2-2v-1c0 1.1-0.9 1.75-2 1.75z"
     fill="#000000"
     id="path6"
     style="fill:#ffffff" />
</svg>
